<?xml version="1.0" standalone="no"?>
<!DOCTYPE svg PUBLIC "-//W3C//DTD SVG 20010904//EN"
 "http://www.w3.org/TR/2001/REC-SVG-20010904/DTD/svg10.dtd">
<svg version="1.0" xmlns="http://www.w3.org/2000/svg"
 width="1080.000000pt" height="1080.000000pt" viewBox="0 0 1080.000000 1080.000000"
 preserveAspectRatio="xMidYMid meet">
<metadata>
Created by potrace 1.14, written by Peter Selinger 2001-2017
</metadata>
<g transform="translate(0.000000,1080.000000) scale(0.100000,-0.100000)"
fill="#000000" stroke="none">
<path d="M5430 10679 c0 -16 -7 -32 -17 -38 -29 -16 -6 -26 60 -27 34 -1 82
-6 106 -12 69 -17 77 -4 32 46 l-30 32 32 9 c29 8 25 9 -33 12 -164 7 -150 9
-150 -22z"/>
<path d="M4873 10624 c-19 -8 -16 -48 5 -75 25 -32 33 -66 22 -95 -12 -31 7
-32 64 -5 23 11 55 22 71 25 17 2 32 5 35 5 3 1 -1 5 -9 10 -9 6 -2 8 20 6 19
-1 38 -1 42 2 12 7 -13 32 -27 27 -6 -2 -21 4 -33 15 -16 15 -23 17 -33 8 -10
-9 -11 -9 -6 0 7 13 -21 46 -33 39 -4 -3 -7 5 -7 17 1 20 -4 22 -49 24 -27 1
-56 0 -62 -3z"/>
<path d="M4480 10460 c0 -5 5 -10 11 -10 5 0 7 5 4 10 -3 6 -8 10 -11 10 -2 0
-4 -4 -4 -10z"/>
<path d="M4124 10405 c-6 -24 2 -157 12 -201 3 -13 -4 -29 -20 -45 l-25 -25
25 0 c42 0 63 41 59 116 -1 36 -6 77 -10 93 -7 27 -7 27 20 17 41 -16 43 -4 5
35 -40 42 -57 44 -66 10z"/>
<path d="M4360 10366 c0 -35 -12 -51 -45 -58 -18 -5 -18 -6 -2 -13 9 -4 28 -4
42 -1 22 6 25 11 25 56 0 28 -4 50 -10 50 -5 0 -10 -15 -10 -34z"/>
<path d="M4013 10123 c9 -2 23 -2 30 0 6 3 -1 5 -18 5 -16 0 -22 -2 -12 -5z"/>
<path d="M3928 10103 c12 -2 30 -2 40 0 9 3 -1 5 -23 4 -22 0 -30 -2 -17 -4z"/>
<path d="M3804 10081 c5 -8 56 -3 56 5 0 2 -14 4 -31 4 -16 0 -28 -4 -25 -9z"/>
<path d="M3670 10006 c0 -7 7 -19 16 -26 32 -28 36 -49 15 -86 -23 -39 -13
-43 35 -13 52 32 44 67 -30 127 -20 16 -36 15 -36 -2z"/>
<path d="M3332 9625 c-7 -8 -9 -15 -4 -15 5 0 15 7 22 15 16 19 -1 19 -18 0z"/>
<path d="M3283 9534 c-12 -26 -21 -49 -19 -51 7 -7 47 70 44 85 -2 8 -13 -7
-25 -34z"/>
<path d="M3234 9439 c-6 -8 -14 -23 -18 -34 -7 -19 -6 -19 15 1 12 12 20 27
17 34 -3 9 -6 9 -14 -1z"/>
<path d="M3035 9189 c-4 -6 -5 -12 -2 -15 2 -3 7 2 10 11 7 17 1 20 -8 4z"/>
<path d="M3009 9120 c-4 -8 -12 -49 -18 -90 -7 -41 -16 -79 -21 -84 -6 -6 -10
-19 -10 -30 1 -17 4 -16 17 9 8 17 22 37 30 46 10 12 13 37 11 90 -2 41 -6 67
-9 59z"/>
<path d="M7740 9005 c0 -5 5 -17 10 -25 5 -8 10 -10 10 -5 0 6 -5 17 -10 25
-5 8 -10 11 -10 5z"/>
<path d="M2889 8792 c-7 -15 -15 -30 -17 -34 -1 -4 3 -5 10 -3 16 7 39 53 29
60 -5 2 -14 -8 -22 -23z"/>
<path d="M2808 8640 c-15 -30 -24 -59 -21 -64 7 -11 55 92 50 107 -2 6 -15
-13 -29 -43z"/>
<path d="M2742 8498 c-7 -7 -12 -22 -12 -35 0 -13 -3 -23 -8 -23 -9 0 -35 -81
-27 -88 3 -3 5 2 5 11 0 8 4 17 8 19 8 3 53 120 48 125 -1 1 -8 -3 -14 -9z"/>
<path d="M7947 8490 c3 -11 7 -20 9 -20 2 0 4 9 4 20 0 11 -4 20 -9 20 -5 0
-7 -9 -4 -20z"/>
<path d="M3855 8490 c-3 -5 4 -7 15 -5 11 2 20 0 20 -4 0 -4 7 -8 15 -8 9 0
12 4 7 9 -13 13 -51 18 -57 8z"/>
<path d="M2643 8283 c-16 -33 -19 -468 -4 -458 6 3 8 78 5 187 -4 155 -2 189
13 230 19 53 7 87 -14 41z"/>
<path d="M8031 8254 c0 -11 3 -14 6 -6 3 7 2 16 -1 19 -3 4 -6 -2 -5 -13z"/>
<path d="M8053 8160 c0 -25 2 -35 4 -22 2 12 2 32 0 45 -2 12 -4 2 -4 -23z"/>
<path d="M8073 7770 c0 -47 2 -66 4 -42 2 23 2 61 0 85 -2 23 -4 4 -4 -43z"/>
<path d="M2651 7447 c-1 -63 3 -106 8 -103 5 4 11 1 13 -4 2 -6 4 26 6 71 1
45 -1 86 -7 93 -5 6 -11 20 -14 31 -2 11 -5 -29 -6 -88z"/>
<path d="M8073 7275 c0 -27 2 -38 4 -22 2 15 2 37 0 50 -2 12 -4 0 -4 -28z"/>
<path d="M2688 7294 c-19 -18 8 -174 43 -251 10 -24 19 -53 19 -65 0 -19 2
-20 10 -8 14 21 12 36 -6 54 -9 10 -14 28 -11 48 3 30 -18 95 -35 108 -4 3 -8
32 -10 64 -2 32 -6 54 -10 50z"/>
<path d="M8048 7178 c-19 -36 -22 -50 -18 -88 2 -21 3 -22 7 -5 3 10 11 28 18
40 15 23 27 85 16 85 -3 0 -14 -15 -23 -32z"/>
<path d="M2750 6821 c0 -138 -6 -156 -53 -165 -158 -28 -244 -49 -257 -62 -19
-19 -19 -140 0 -339 12 -133 11 -249 -6 -495 -7 -94 8 -285 27 -365 6 -22 12
-64 14 -93 4 -55 50 -220 66 -236 5 -6 9 -19 9 -29 0 -11 11 -41 25 -69 14
-27 25 -55 25 -62 0 -7 16 -34 35 -59 19 -25 35 -49 35 -52 0 -3 21 -36 47
-73 26 -37 60 -87 77 -112 59 -88 133 -170 154 -170 8 0 32 -19 54 -42 28 -31
38 -50 38 -75 0 -18 5 -33 10 -33 13 0 13 69 -1 108 -8 22 -30 43 -75 72 -36
23 -68 49 -71 58 -4 9 -22 32 -40 51 -19 19 -46 55 -60 80 -15 25 -47 78 -72
116 -114 175 -210 427 -240 630 -7 44 -16 103 -21 130 -5 28 -11 118 -14 202
-3 120 -1 153 10 157 7 3 16 20 19 38 4 18 14 44 24 56 l17 24 52 -33 c51 -31
63 -54 41 -76 -8 -8 -8 -17 1 -33 14 -26 6 -84 -17 -119 -28 -44 3 -253 57
-386 4 -11 18 -46 31 -78 12 -33 28 -61 36 -64 10 -4 11 -8 3 -13 -18 -11 0
-40 39 -60 27 -14 31 -19 16 -20 -18 -1 -18 -2 5 -16 14 -8 17 -13 8 -10 -30
9 -20 -8 12 -23 29 -12 30 -14 13 -26 -17 -12 -17 -16 -2 -57 10 -24 22 -42
29 -40 19 4 29 -18 21 -42 -12 -34 2 -71 35 -99 26 -22 34 -24 48 -14 14 10
14 17 5 47 -7 19 -15 130 -19 245 -4 116 -10 220 -13 232 -8 32 15 47 55 35
37 -12 155 -33 328 -58 170 -25 697 -26 909 -1 160 19 315 53 372 82 45 23
194 122 207 138 33 39 93 178 116 268 31 120 70 193 141 265 45 46 57 53 122
68 93 21 121 20 186 -4 39 -15 70 -37 109 -78 75 -80 93 -112 139 -259 22 -70
48 -146 57 -168 48 -114 215 -222 414 -270 158 -37 384 -55 692 -55 196 0 296
5 361 16 50 8 128 21 175 29 220 36 259 48 323 97 62 47 117 101 117 114 0 6
7 17 16 25 16 13 43 60 50 87 2 10 12 53 22 97 39 165 48 189 94 226 23 19 58
43 78 54 19 11 44 38 55 59 28 54 45 63 86 44 49 -23 118 -42 125 -35 10 10
-16 37 -36 37 -10 0 -30 14 -44 31 -25 29 -26 36 -26 154 0 114 -2 129 -30
196 -16 41 -30 75 -30 76 0 1 -17 11 -37 24 -54 32 -63 46 -63 106 0 30 -4 53
-10 53 -6 0 -10 -6 -9 -12 3 -18 -12 -93 -20 -107 -8 -12 -181 0 -271 19 -25
5 -124 14 -222 20 -190 11 -202 13 -281 62 -48 30 -102 58 -197 102 -19 9 -62
18 -95 22 -33 3 -74 10 -91 15 -43 13 -309 12 -309 0 0 -1 -164 -12 -212 -14
-7 0 -13 -3 -13 -6 0 -3 -28 -6 -62 -6 -69 0 -191 -33 -181 -48 3 -6 2 -7 -4
-4 -11 7 -90 -15 -124 -35 -30 -17 -77 -67 -95 -100 -14 -28 -23 -32 -88 -43
-51 -9 -216 -87 -241 -115 -51 -57 -176 -84 -295 -65 -84 13 -111 25 -155 66
-35 33 -183 103 -239 113 -36 7 -75 23 -86 37 -8 10 -81 42 -96 42 -7 0 -12 5
-11 11 2 10 -3 11 -50 14 -13 1 -23 8 -23 15 0 8 -15 14 -42 15 -24 2 -52 5
-63 9 -11 3 -31 7 -45 9 -14 1 -36 5 -50 9 -14 3 -70 8 -125 11 -55 3 -144 8
-197 12 -134 10 -378 -11 -443 -38 -39 -16 -101 -42 -140 -60 -43 -19 -102
-26 -310 -36 -71 -3 -157 -10 -190 -15 -33 -5 -77 -9 -97 -9 -35 0 -37 2 -43
35 -3 19 -8 52 -12 73 -4 20 -6 67 -4 105 2 43 -1 67 -8 67 -7 0 -11 -42 -11
-129z m3788 67 c-2 -6 -12 -12 -21 -14 -9 -1 -15 2 -11 7 3 5 10 7 15 4 5 -4
9 -1 9 4 0 6 3 11 6 11 3 0 4 -5 2 -12z m-1948 -162 c0 -2 -7 -7 -16 -10 -8
-3 -12 -2 -9 4 6 10 25 14 25 6z m2602 -251 c258 -30 326 -52 373 -123 27 -41
28 -50 46 -277 10 -135 10 -159 -6 -235 -27 -128 -69 -186 -171 -238 -33 -17
-87 -36 -119 -42 -33 -7 -78 -16 -100 -22 -22 -5 -60 -14 -85 -19 -77 -17
-506 -30 -590 -18 -41 6 -138 19 -215 29 -188 26 -238 42 -337 111 -14 11 -31
19 -36 19 -18 0 -92 111 -92 137 0 31 15 27 130 -34 207 -109 367 -147 615
-147 118 0 172 4 255 22 107 23 224 71 283 117 19 14 37 25 42 25 4 0 24 15
45 33 20 17 51 40 68 49 52 28 43 53 -51 147 -169 168 -239 186 -717 186
l-325 0 -45 -25 c-91 -50 -151 -102 -227 -195 -43 -52 -83 -95 -90 -95 -16 0
-19 17 -33 155 -13 145 -13 255 2 287 11 24 100 87 142 102 51 18 186 40 311
51 210 19 763 18 927 0z m-2982 -5 c273 -16 409 -56 483 -145 37 -44 37 -44
37 -136 0 -107 -16 -213 -35 -229 -9 -8 -33 10 -96 71 -145 141 -230 169 -509
169 -139 0 -430 -24 -500 -40 -24 -6 -69 -25 -100 -42 -57 -33 -205 -176 -216
-210 -8 -25 3 -37 110 -117 109 -82 187 -122 281 -145 39 -10 86 -22 106 -27
61 -15 360 -11 447 7 109 22 203 51 275 84 34 16 74 32 90 35 15 4 30 11 33
16 8 14 34 11 34 -4 0 -23 -54 -87 -95 -112 -77 -47 -180 -95 -215 -100 -19
-3 -57 -10 -85 -15 -182 -34 -313 -43 -549 -37 -197 4 -257 9 -331 27 -288 68
-330 86 -385 162 -17 23 -40 72 -51 110 -19 61 -20 88 -17 275 3 200 4 210 28
253 40 71 98 98 278 127 167 27 684 39 982 23z m2376 -391 c10 -17 -28 -49
-67 -55 -28 -5 -41 -1 -64 18 -16 14 -25 30 -21 36 9 15 142 16 152 1z m-2526
-11 c0 -26 -43 -58 -80 -58 -39 0 -88 39 -75 59 9 16 155 15 155 -1z m2190
-22 c0 -11 -4 -36 -9 -53 -8 -27 -5 -38 16 -70 14 -21 30 -51 36 -68 14 -41
63 -102 88 -110 25 -8 60 -41 52 -49 -10 -10 -69 -7 -120 6 -114 27 -308 105
-347 137 -25 21 0 63 78 139 54 53 83 73 116 82 25 6 50 12 55 14 19 6 35 -6
35 -28z m722 19 c42 -9 96 -29 126 -48 55 -32 112 -88 112 -109 0 -6 -26 -35
-57 -64 -97 -89 -245 -149 -395 -160 -77 -6 -88 -5 -88 9 0 9 25 33 56 53 34
23 62 50 69 68 7 17 23 44 36 60 17 22 24 47 29 105 5 75 13 101 30 101 5 0
42 -7 82 -15z m-3261 -5 c16 -9 19 -22 19 -78 0 -75 14 -111 76 -191 24 -33
58 -61 97 -82 34 -18 55 -34 48 -38 -16 -10 -165 7 -251 29 -41 10 -102 34
-135 51 -66 36 -165 126 -165 151 0 47 139 141 232 157 29 5 54 9 56 10 2 0
12 -4 23 -9z m744 -13 c36 -19 147 -131 166 -169 l19 -36 -33 -19 c-66 -39
-145 -72 -223 -93 -43 -12 -93 -26 -110 -31 -38 -11 -84 -12 -84 -1 0 13 23
37 55 60 17 11 37 33 45 49 8 15 19 35 26 43 24 31 46 122 41 165 -4 23 -3 45
0 49 8 8 71 -3 98 -17z m2282 17 c-3 -3 -12 -4 -19 -1 -8 3 -5 6 6 6 11 1 17
-2 13 -5z m3 -150 c25 -46 -22 -84 -61 -48 -23 21 -24 37 -3 58 23 23 49 19
64 -10z m-2746 -37 c17 -12 17 -17 5 -43 -19 -39 -53 -40 -57 -1 -3 26 12 57
27 57 4 0 15 -6 25 -13z m-1259 -637 c3 -5 1 -10 -4 -10 -6 0 -11 5 -11 10 0
6 2 10 4 10 3 0 8 -4 11 -10z m131 -192 c4 -7 3 -8 -4 -4 -7 4 -12 2 -12 -3 0
-6 -7 -11 -15 -11 -21 0 -19 18 3 23 9 3 18 5 19 6 1 0 5 -4 9 -11z"/>
<path d="M8001 6874 c0 -11 3 -14 6 -6 3 7 2 16 -1 19 -3 4 -6 -2 -5 -13z"/>
<path d="M8280 6064 c0 -3 9 -17 20 -31 11 -14 20 -38 20 -54 0 -15 4 -30 10
-34 5 -3 9 -41 9 -85 0 -82 4 -100 24 -100 8 0 8 3 0 11 -6 6 -9 35 -6 72 5
62 -7 117 -43 195 -13 28 -34 44 -34 26z"/>
<path d="M8068 5857 c-74 -73 -111 -121 -130 -165 -11 -26 -30 -69 -44 -95
-13 -27 -24 -61 -24 -77 0 -15 -7 -41 -15 -56 -8 -16 -15 -43 -15 -59 0 -17
-9 -64 -21 -105 -26 -97 -46 -201 -43 -231 1 -13 -2 -50 -7 -81 -12 -69 -4
-114 17 -97 8 6 14 8 14 3 0 -5 7 0 16 11 13 18 13 21 -3 35 -10 8 -16 14 -14
13 2 -2 10 2 18 9 11 9 12 7 7 -8 -4 -10 -4 -16 0 -13 12 11 16 100 4 93 -7
-4 -8 -2 -4 5 4 6 11 9 16 6 5 -3 11 -1 15 5 3 5 0 10 -7 10 -10 0 -10 2 1 9
8 5 10 14 6 21 -5 9 -4 11 3 6 7 -4 12 -2 12 3 0 6 9 20 20 31 16 16 17 20 5
20 -8 0 -15 5 -15 11 0 5 5 7 11 3 8 -4 9 1 5 17 l-7 24 14 -24 c8 -14 16 -19
18 -12 3 7 12 9 22 6 9 -4 15 -10 12 -15 -2 -4 6 -5 19 -3 24 5 76 90 76 126
0 15 11 22 25 15 10 -5 65 117 61 135 -2 9 -1 15 4 12 7 -5 13 16 28 100 19
105 -1 296 -29 279 -5 -3 -12 3 -16 12 -4 10 -2 19 5 22 7 2 12 10 12 18 0 25
-38 15 -72 -19z m42 -427 c0 -5 -5 -10 -11 -10 -5 0 -7 5 -4 10 3 6 8 10 11
10 2 0 4 -4 4 -10z"/>
<path d="M8355 5670 c-3 -5 -1 -10 4 -10 6 0 11 5 11 10 0 6 -2 10 -4 10 -3 0
-8 -4 -11 -10z"/>
<path d="M8339 5600 c0 -26 -13 -140 -28 -250 -16 -124 -126 -402 -201 -511
-17 -24 -60 -87 -94 -139 -35 -52 -80 -111 -101 -130 -20 -19 -41 -45 -45 -57
-6 -13 -21 -24 -42 -28 -18 -4 -45 -16 -60 -26 -14 -11 -34 -19 -45 -19 -30 0
-44 -15 -54 -56 -17 -70 -21 -114 -11 -114 5 0 12 23 16 50 6 44 12 54 48 80
23 17 58 35 78 40 20 5 53 24 74 42 36 31 166 191 166 205 0 4 18 28 40 54 22
26 40 51 40 55 0 4 17 30 38 58 22 28 47 71 56 96 10 25 23 54 30 65 14 21 58
151 76 225 29 115 49 355 31 373 -8 8 -11 4 -12 -13z"/>
<path d="M8060 5276 c0 -8 5 -18 10 -21 6 -3 10 1 10 9 0 8 -4 18 -10 21 -5 3
-10 -1 -10 -9z"/>
<path d="M7946 5073 c-6 -14 -5 -15 5 -6 7 7 10 15 7 18 -3 3 -9 -2 -12 -12z"/>
<path d="M7865 5000 c6 -10 3 -12 -11 -7 -18 7 -18 6 -1 -7 18 -14 24 -32 7
-21 -6 3 -7 -1 -4 -10 4 -9 9 -14 12 -11 10 11 10 56 0 63 -7 4 -8 1 -3 -7z"/>
<path d="M7856 4891 c-23 -25 -66 -34 -58 -12 7 21 -2 12 -17 -16 -10 -19 -8
-26 9 -43 19 -19 22 -19 50 -5 31 16 65 69 55 85 -9 15 -20 12 -39 -9z"/>
<path d="M3070 4240 c0 -19 5 -42 10 -50 7 -11 10 -6 10 20 0 19 -5 42 -10 50
-7 11 -10 6 -10 -20z"/>
<path d="M7636 4214 c-9 -24 -7 -54 4 -54 6 0 10 16 10 35 0 38 -4 44 -14 19z"/>
<path d="M3090 4117 c0 -13 7 -32 15 -43 8 -10 15 -38 15 -61 0 -24 4 -43 9
-43 5 0 11 -15 14 -32 4 -18 9 -49 12 -68 4 -19 13 -48 20 -65 7 -16 21 -57
30 -90 21 -75 38 -115 47 -115 5 0 8 -6 8 -13 0 -17 26 -71 179 -374 8 -16 27
-44 42 -64 16 -20 29 -40 29 -44 0 -7 20 -32 76 -100 40 -48 74 -81 74 -72 0
1 46 -41 103 -95 56 -54 107 -98 113 -98 7 0 31 -22 55 -48 24 -26 46 -48 49
-48 3 0 36 -22 73 -49 38 -28 92 -67 120 -87 28 -21 57 -38 64 -38 15 0 86
-44 120 -73 12 -11 33 -25 45 -31 26 -13 35 -43 19 -59 -6 -6 -60 -17 -119
-24 -59 -7 -143 -18 -187 -23 -44 -6 -188 -14 -320 -19 -207 -8 -253 -12 -335
-34 -218 -58 -230 -63 -323 -136 -154 -120 -180 -144 -200 -190 -26 -60 -57
-184 -57 -231 0 -48 -13 -78 -72 -167 -43 -63 -48 -77 -48 -126 0 -93 -13
-108 -140 -160 -19 -8 -55 -32 -79 -53 -74 -65 -265 -257 -287 -289 -22 -31
-74 -162 -92 -230 -6 -22 -27 -101 -47 -175 -21 -74 -41 -153 -45 -175 -4 -22
-13 -66 -19 -97 -7 -32 -11 -84 -9 -115 l3 -58 1356 -3 1356 -2 17 127 c40
314 45 507 21 812 -17 220 -16 212 -57 343 -17 53 -28 104 -25 112 11 28 65
-10 92 -65 84 -165 112 -873 50 -1291 l-5 -38 1849 0 1848 0 12 88 c6 49 11
101 11 116 0 15 5 36 11 47 6 12 21 64 35 116 21 84 24 118 24 277 l0 181 -36
100 c-41 115 -70 208 -88 280 -22 90 -73 169 -165 258 -127 122 -222 189 -345
243 -101 45 -110 51 -126 89 -10 22 -23 65 -29 95 -13 60 -37 104 -78 142
-103 95 -142 155 -143 221 0 42 -24 88 -61 123 -37 33 -156 104 -204 121 -60
22 -171 35 -240 29 -131 -11 -597 -18 -594 -9 6 13 105 103 114 103 14 0 138
93 191 143 29 27 63 56 75 65 56 39 289 288 341 363 13 19 35 50 51 70 15 20
27 41 27 47 0 7 5 12 10 12 6 0 10 5 10 11 0 15 83 183 93 187 4 2 7 9 7 15 0
7 6 23 13 37 7 14 22 49 32 78 10 28 22 52 25 52 3 0 7 10 7 22 1 13 7 24 13
26 5 2 10 17 10 32 0 16 4 32 10 35 6 3 9 27 9 53 -1 27 -4 36 -6 22 -12 -66
-87 -252 -157 -390 -88 -173 -107 -207 -125 -227 -12 -12 -21 -25 -21 -28 0
-9 -80 -116 -120 -159 -138 -152 -357 -339 -508 -434 -24 -15 -74 -46 -110
-69 -37 -24 -89 -55 -117 -69 -27 -15 -61 -41 -75 -58 -25 -30 -25 -33 -25
-211 0 -160 3 -188 23 -255 29 -92 127 -324 244 -577 11 -23 17 -50 14 -60
-12 -37 -138 -154 -233 -216 -127 -84 -158 -101 -214 -116 -69 -19 -88 -12
-126 44 -77 112 -114 134 -168 99 -28 -18 -28 -18 -29 48 -1 33 -8 55 -24 75
-12 15 -48 67 -79 115 -78 118 -104 131 -173 89 -28 -17 -150 -51 -184 -51
-19 0 -90 18 -158 40 -132 42 -267 76 -363 91 -33 5 -67 12 -75 15 -8 3 -55
12 -104 20 -49 8 -124 24 -165 35 -42 12 -86 23 -99 26 -12 3 -29 15 -37 26
-12 18 -11 23 13 54 14 19 36 39 47 43 12 5 22 15 22 24 0 9 7 30 16 48 8 18
21 60 27 93 7 33 16 68 21 77 5 10 9 39 9 65 0 35 3 44 10 33 7 -11 10 -11 10
-2 0 7 5 10 12 6 7 -4 8 -3 4 5 -4 6 -1 14 8 17 15 6 40 63 31 72 -3 3 -5 0
-5 -7 0 -8 -7 -10 -22 -6 -15 6 -20 4 -16 -6 3 -8 1 -23 -3 -34 -7 -16 -8 -13
-8 15 1 19 0 49 -1 65 -3 25 -4 22 -10 -15 l-7 -45 -1 43 c-1 25 4 49 12 57
11 11 13 9 14 -16 1 -33 9 -49 24 -49 6 0 5 6 -3 16 -11 13 -11 15 2 14 39 -6
61 0 55 16 -4 12 -1 14 14 9 11 -4 20 -2 20 4 0 6 -3 10 -7 9 -8 -1 -63 23
-93 41 -8 5 -35 19 -60 30 -25 12 -58 30 -75 41 -16 11 -37 23 -45 27 -85 38
-329 198 -388 254 -9 9 -35 28 -57 41 -47 30 -230 198 -262 241 -12 16 -31 36
-42 43 -24 17 -111 128 -111 142 0 5 -14 28 -31 51 -45 63 -99 162 -155 286
-10 22 -20 42 -23 45 -12 10 -39 77 -66 160 -15 47 -32 89 -36 95 -5 5 -9 20
-9 33 0 13 -5 33 -12 45 -6 12 -15 40 -19 62 -4 22 -12 56 -18 75 -6 19 -16
56 -22 83 -13 49 -29 63 -29 24z"/>
<path d="M7610 4054 c0 -8 5 -12 10 -9 6 4 8 11 5 16 -9 14 -15 11 -15 -7z"/>
<path d="M7580 3961 c0 -17 2 -31 4 -31 8 0 13 51 5 56 -5 3 -9 -9 -9 -25z"/>
<path d="M6216 2419 c-17 -5 -39 -20 -51 -33 -12 -14 -25 -23 -29 -19 -3 3 -6
1 -6 -6 0 -8 8 -11 20 -8 11 3 22 1 26 -4 3 -5 16 -2 30 7 19 13 24 14 24 3 1
-21 30 21 30 42 0 24 -10 28 -44 18z"/>
<path d="M4660 2270 c0 -5 5 -10 11 -10 5 0 7 5 4 10 -3 6 -8 10 -11 10 -2 0
-4 -4 -4 -10z"/>
<path d="M4690 2266 c0 -2 7 -7 16 -10 8 -3 12 -2 9 4 -6 10 -25 14 -25 6z"/>
<path d="M4740 2249 c0 -5 5 -9 10 -9 6 0 10 -8 11 -17 0 -11 3 -13 6 -5 2 6
9 10 14 6 5 -3 9 1 9 9 0 8 -11 17 -25 19 -14 3 -25 1 -25 -3z"/>
<path d="M4656 2241 c-4 -5 -3 -17 1 -27 4 -11 3 -15 -5 -10 -6 3 -13 2 -17
-4 -3 -5 2 -10 12 -10 13 0 15 -3 5 -8 -7 -5 -10 -16 -6 -26 4 -11 1 -22 -7
-28 -12 -8 -11 -9 1 -6 8 3 19 14 25 26 5 12 17 22 25 22 11 0 12 2 2 8 -7 5
-14 23 -15 40 -2 32 -11 41 -21 23z"/>
<path d="M4698 2240 c14 -16 16 -34 4 -26 -5 3 -9 -1 -9 -9 0 -8 5 -11 10 -8
5 3 13 0 17 -7 4 -7 13 -9 19 -5 9 5 9 10 1 20 -8 9 -8 15 0 18 6 3 5 4 -2 3
-7 -2 -22 4 -33 13 -12 9 -15 10 -7 1z"/>
<path d="M4590 2159 c0 -5 5 -7 11 -3 6 3 15 0 20 -7 4 -7 11 -10 14 -7 11 11
-5 28 -26 28 -10 0 -19 -5 -19 -11z"/>
<path d="M4520 2058 c0 -23 3 -29 9 -19 8 12 4 51 -5 51 -2 0 -4 -15 -4 -32z"/>
</g>
</svg>
